<svg xmlns="http://www.w3.org/2000/svg" width="99" height="24" fill="none" viewBox="0 0 99 24"><clipPath id="a"><path d="M.628 0h98.007v23.375H.628z"/></clipPath><g clip-path="url(#a)"><path fill="#757693" d="M23.646 21.821h-5.435l-1.663-4.01h-9.06l-1.514 4.01H.628l8.167-20.26h5.856zM11.795 6.405l-2.968 7.87h6.237zM43.39 1.562h4.396v20.26h-5.05V9.168l-5.465 6.356H36.5L31.034 9.17v12.652h-5.049V1.561h4.396l6.507 7.515zm17.19 0c7.395 0 11.191 4.603 11.191 10.15 0 5.821-3.683 10.1-11.76 10.1h-8.37V1.562zm-3.892 16.544h3.297c5.075 0 6.593-3.446 6.593-6.417 0-3.476-1.87-6.415-6.652-6.415h-3.238zM81.822 6.368 75.456 0h23.179v23.18l-6.368-6.368V6.368zm-.008 1.276L75.26 14.2v9.176h9.175l6.555-6.555h-9.174z"/></g></svg>