<svg xmlns="http://www.w3.org/2000/svg" width="89" height="32" fill="none" viewBox="0 0 89 32"><clipPath id="a"><path d="M0 0h88.564v31.875H0z"/></clipPath><g clip-path="url(#a)"><path fill="#fff" fill-rule="evenodd" d="M11.345 1.413C5.582 8.181.056 16.573 0 22.847a7.427 7.427 0 0 0 2.54 5.982 12.32 12.32 0 0 0 8.32 3.045c4.168.005 8.306-1.681 11.544-2.973C27.862 26.72 88.19.521 88.19.521c.581-.291.473-.654-.256-.474-.294.074-65.68 17.792-65.68 17.792a14.49 14.49 0 0 1-3.805.545c-5.025.03-9.496-2.76-9.46-8.637.143-2.92.949-5.77 2.356-8.334z" clip-rule="evenodd"/></g></svg>