<svg xmlns="http://www.w3.org/2000/svg" width="50" height="50" fill="none" viewBox="0 0 50 50"><clipPath id="a"><path d="M0 0h50v50H0z"/></clipPath><g fill="#4e6bff" clip-path="url(#a)"><path d="M26.07 2.727 44.344 13.69a1.041 1.041 0 0 1 0 1.787L25 27.083 5.656 15.477a1.041 1.041 0 0 1 0-1.787l18.27-10.963a2.083 2.083 0 0 1 2.147 0z"/><path d="m41.84 21.875 2.503 1.502a1.042 1.042 0 0 1 0 1.788L25 36.77 5.656 25.165a1.042 1.042 0 0 1 0-1.788l2.504-1.502L25 31.979zm0 9.792 2.503 1.502a1.041 1.041 0 0 1 0 1.787L26.073 45.92a2.083 2.083 0 0 1-2.146 0L5.656 34.956a1.041 1.041 0 0 1 0-1.787l2.504-1.502L25 41.77z" opacity=".5"/></g></svg>