<svg xmlns="http://www.w3.org/2000/svg" width="50" height="50" fill="none" viewBox="0 0 50 50"><clipPath id="a"><path d="M0 0h50v50H0z"/></clipPath><g fill="#4e6bff" clip-path="url(#a)"><path d="M25 4.167c11.507 0 20.834 9.327 20.834 20.833S36.507 45.833 25 45.833C13.494 45.833 4.167 36.506 4.167 25S13.494 4.167 25 4.167zm0 4.166C15.796 8.333 8.334 15.796 8.334 25S15.796 41.667 25 41.667 41.667 34.204 41.667 25 34.204 8.333 25 8.333zm8.838 4.882 2.948 2.945-7.759 7.763A4.166 4.166 0 0 1 25 29.167 4.165 4.165 0 0 1 20.834 25a4.166 4.166 0 0 1 5.243-4.027l7.763-7.758z"/><path d="M25 10.417c2.121 0 4.136.452 5.954 1.266l-3.256 3.255c-.86-.23-1.764-.355-2.698-.355-5.752 0-10.416 4.665-10.416 10.417a10.4 10.4 0 0 0 3.05 7.367l-2.946 2.946-.325-.336A14.542 14.542 0 0 1 10.417 25c0-8.054 6.53-14.583 14.583-14.583zm13.317 8.63A14.55 14.55 0 0 1 39.584 25a14.55 14.55 0 0 1-4.271 10.313l-2.946-2.946A10.4 10.4 0 0 0 35.417 25c0-.933-.123-1.837-.354-2.698z" opacity=".5"/></g></svg>