<svg xmlns="http://www.w3.org/2000/svg" width="56" height="56" fill="none" viewBox="0 0 56 56"><clipPath id="a"><path d="M0 0h56v56H0z"/></clipPath><g clip-path="url(#a)"><path fill="#e0e3f1" d="M10.694 40.416C8.29 37.863 7 35 7 30.359c0-8.167 5.733-15.486 14.07-19.105l2.084 3.215c-7.782 4.21-9.303 9.672-9.91 13.116 1.253-.649 2.893-.875 4.501-.726 4.21.39 7.527 3.845 7.527 8.141a8.167 8.167 0 0 1-8.166 8.167c-2.504 0-4.898-1.144-6.412-2.751zm23.333 0c-2.403-2.553-3.694-5.416-3.694-10.057 0-8.167 5.733-15.486 14.07-19.105l2.084 3.215c-7.782 4.21-9.303 9.672-9.91 13.116 1.253-.649 2.894-.875 4.501-.726 4.21.39 7.528 3.845 7.528 8.141a8.167 8.167 0 0 1-8.167 8.167c-2.504 0-4.898-1.144-6.412-2.751z"/></g></svg>