<svg xmlns="http://www.w3.org/2000/svg" width="130" height="44" fill="none" viewBox="0 0 130 44"><path fill="#181c31" d="M64.96 34v-3.2h6.432c1.13 0 2.005-.352 2.624-1.056s.928-1.515.928-2.432c0-.619-.139-1.195-.416-1.728s-.683-.96-1.216-1.28-1.173-.48-1.92-.48H64.96v-3.2h5.888c.96 0 1.728-.245 2.304-.736s.864-1.216.864-2.176-.288-1.685-.864-2.176-1.344-.736-2.304-.736H64.96v-3.2h5.984c1.515 0 2.773.277 3.776.832s1.75 1.27 2.24 2.144.736 1.813.736 2.816c0 1.173-.33 2.208-.992 3.104-.64.896-1.59 1.621-2.848 2.176l.288-1.152c1.408.576 2.507 1.387 3.296 2.432s1.184 2.272 1.184 3.68a6.042 6.042 0 0 1-.864 3.168c-.555.96-1.387 1.739-2.496 2.336-1.088.576-2.432.864-4.032.864zm-2.528 0V11.6h3.68V34zm25.858.32c-1.386 0-2.645-.352-3.776-1.056-1.11-.704-1.994-1.653-2.656-2.848-.64-1.216-.96-2.57-.96-4.064 0-1.515.32-2.87.96-4.064.662-1.216 1.547-2.176 2.656-2.88 1.13-.725 2.39-1.088 3.776-1.088 1.174 0 2.208.256 3.104.768a5.586 5.586 0 0 1 2.176 2.048c.534.875.8 1.867.8 2.976v4.416c0 1.11-.266 2.101-.8 2.976a5.584 5.584 0 0 1-2.144 2.08c-.917.49-1.962.736-3.136.736zm.576-3.328c1.302 0 2.347-.437 3.136-1.312.81-.875 1.216-1.995 1.216-3.36 0-.917-.181-1.728-.544-2.432a3.915 3.915 0 0 0-1.536-1.632c-.64-.405-1.397-.608-2.272-.608-.853 0-1.61.203-2.272.608-.64.384-1.152.928-1.536 1.632-.362.704-.544 1.515-.544 2.432s.182 1.728.544 2.432a4.447 4.447 0 0 0 1.536 1.664c.662.384 1.419.576 2.272.576zM92.994 34v-4.128l.608-3.744-.608-3.712V18.64h3.52V34zm12.451.32a9.399 9.399 0 0 1-2.464-.32 9.095 9.095 0 0 1-2.176-.96 7.428 7.428 0 0 1-1.728-1.536l2.24-2.24a5.453 5.453 0 0 0 1.824 1.408c.704.299 1.493.448 2.368.448.789 0 1.386-.117 1.792-.352.405-.235.608-.576.608-1.024 0-.47-.192-.832-.576-1.088s-.886-.47-1.504-.64a55.445 55.445 0 0 0-1.92-.576 10.57 10.57 0 0 1-1.92-.768c-.598-.341-1.088-.8-1.472-1.376s-.576-1.323-.576-2.24c0-.981.224-1.824.672-2.528.469-.704 1.12-1.248 1.952-1.632.853-.384 1.866-.576 3.04-.576 1.237 0 2.325.224 3.264.672a5.908 5.908 0 0 1 2.4 1.952l-2.24 2.24c-.448-.555-.96-.97-1.536-1.248s-1.238-.416-1.984-.416c-.704 0-1.248.107-1.632.32s-.576.523-.576.928c0 .427.192.757.576.992s.874.437 1.472.608c.618.17 1.258.363 1.92.576.682.192 1.322.47 1.92.832.618.341 1.12.81 1.504 1.408.384.576.576 1.333.576 2.272 0 1.493-.523 2.677-1.568 3.552-1.046.875-2.464 1.312-4.256 1.312zm15.862 0c-1.536 0-2.923-.341-4.16-1.024a8.016 8.016 0 0 1-2.912-2.88c-.704-1.216-1.056-2.581-1.056-4.096s.352-2.87 1.056-4.064a7.844 7.844 0 0 1 2.848-2.88c1.216-.704 2.56-1.056 4.032-1.056 1.429 0 2.688.33 3.776.992a6.918 6.918 0 0 1 2.592 2.72c.64 1.152.96 2.464.96 3.936 0 .256-.022.523-.064.8a7.883 7.883 0 0 1-.128.864h-12.608v-2.88h10.784l-1.312 1.152c-.043-.939-.224-1.728-.544-2.368s-.779-1.13-1.376-1.472c-.576-.341-1.291-.512-2.144-.512-.896 0-1.675.192-2.336.576a3.906 3.906 0 0 0-1.536 1.632c-.363.683-.544 1.504-.544 2.464s.192 1.803.576 2.528.928 1.29 1.632 1.696c.704.384 1.514.576 2.432.576a5.58 5.58 0 0 0 2.176-.416 4.553 4.553 0 0 0 1.728-1.216l2.24 2.272a7.192 7.192 0 0 1-2.72 1.984 8.674 8.674 0 0 1-3.392.672z"/><rect width="44" height="44" fill="#4e6bff" rx="10"/><path fill="#fff" d="M22.625 19.625h7.486l-9.625 13.903v-9.625H13L22.625 10z"/></svg>