<svg xmlns="http://www.w3.org/2000/svg" width="106" height="32" fill="none" viewBox="0 0 106 32"><clipPath id="a"><path d="M0 0h105.876v31.875H0z"/></clipPath><g fill="#757693" fill-rule="evenodd" clip-path="url(#a)" clip-rule="evenodd"><path d="M65.68 24.927c-6.13 4.532-15.045 6.947-22.735 6.947a41.222 41.222 0 0 1-27.788-10.588c-.557-.52-.075-1.227.634-.817a55.195 55.195 0 0 0 49 3.008c1.038-.407 1.893.712.89 1.45z"/><path d="M68.244 21.992c-.78-1.003-5.2-.483-7.17-.223-.595.075-.707-.445-.149-.817 3.53-2.489 9.287-1.746 9.957-.928s-.185 6.613-3.492 9.361c-.52.409-1.003.185-.78-.371.742-1.857 2.414-5.982 1.634-7.022zm-7.059-18.5v-2.41a.566.566 0 0 1 .595-.595h10.77a.62.62 0 0 1 .634.595v2.043c0 .335-.297.78-.817 1.522l-5.572 7.95a12.1 12.1 0 0 1 6.135 1.297 1.108 1.108 0 0 1 .557.928v2.563c0 .372-.372.78-.78.557a12.29 12.29 0 0 0-11.368.037.584.584 0 0 1-.78-.557v-2.455a2.777 2.777 0 0 1 .408-1.635l6.469-9.25h-5.61a.619.619 0 0 1-.634-.595zM21.918 18.458h-3.273a.671.671 0 0 1-.595-.556V1.114a.619.619 0 0 1 .634-.595h3.044a.605.605 0 0 1 .595.557v2.192h.075a4.485 4.485 0 0 1 8.545 0 4.656 4.656 0 0 1 4.531-3.12 4.605 4.605 0 0 1 3.79 1.858c1.04 1.411.817 3.455.817 5.275v10.625a.62.62 0 0 1-.634.595h-3.232a.634.634 0 0 1-.595-.595V8.99c.05-1.053.025-2.108-.075-3.158a1.724 1.724 0 0 0-1.931-1.448 2.188 2.188 0 0 0-1.969 1.375 10.296 10.296 0 0 0-.297 3.231v8.916a.619.619 0 0 1-.634.595h-3.268a.634.634 0 0 1-.595-.595V8.99c0-1.858.297-4.643-2.007-4.643-2.34 0-2.266 2.675-2.266 4.643v8.916a.652.652 0 0 1-.669.556zM82.472.143c4.867 0 7.505 4.16 7.505 9.474 0 5.126-2.898 9.213-7.505 9.213-4.755 0-7.356-4.16-7.356-9.362-.037-5.238 2.6-9.325 7.356-9.325zm0 3.455c-2.41 0-2.563 3.307-2.563 5.35 0 2.043-.037 6.427 2.526 6.427 2.527 0 2.675-3.53 2.675-5.684a16.253 16.253 0 0 0-.483-4.458 2.055 2.055 0 0 0-2.155-1.63zm13.782 14.86h-3.269a.635.635 0 0 1-.594-.594V1.04a.642.642 0 0 1 .634-.557h3.044a.634.634 0 0 1 .595.483V3.53h.074c.929-2.304 2.192-3.38 4.459-3.38a4.324 4.324 0 0 1 3.826 1.968c.855 1.338.855 3.604.855 5.238v10.589a.611.611 0 0 1-.634.52h-3.268a.676.676 0 0 1-.595-.52V8.806c0-1.857.223-4.532-2.044-4.532a2.156 2.156 0 0 0-1.895 1.337 7.713 7.713 0 0 0-.52 3.195v9.065a.68.68 0 0 1-.668.595zm-43.65-8.024a6.644 6.644 0 0 1-.595 3.491 2.63 2.63 0 0 1-2.267 1.487c-1.268 0-2.006-.967-2.006-2.378 0-2.79 2.488-3.307 4.866-3.307zm3.306 7.99a.672.672 0 0 1-.78.075 8.2 8.2 0 0 1-1.895-2.192 6.509 6.509 0 0 1-5.386 2.378 4.652 4.652 0 0 1-4.904-5.09 5.56 5.56 0 0 1 3.492-5.35 23.195 23.195 0 0 1 6.167-1.151v-.409a4.013 4.013 0 0 0-.409-2.378 2.2 2.2 0 0 0-1.82-.855 2.473 2.473 0 0 0-2.638 1.969c-.075.297-.26.595-.557.595l-3.158-.335a.571.571 0 0 1-.483-.668c.743-3.864 4.198-5.016 7.318-5.016a7.357 7.357 0 0 1 4.947 1.635C57.4 3.12 57.252 5.124 57.252 7.28v5.09a4.602 4.602 0 0 0 1.227 3.044c.223.297.26.668 0 .855-.712.56-1.9 1.6-2.569 2.159zm-46.214-7.99a6.643 6.643 0 0 1-.594 3.491 2.63 2.63 0 0 1-2.267 1.487c-1.268 0-2.006-.967-2.006-2.378 0-2.79 2.488-3.307 4.866-3.307zm3.27 7.99a.672.672 0 0 1-.78.075 8.202 8.202 0 0 1-1.895-2.192 6.508 6.508 0 0 1-5.386 2.378A4.652 4.652 0 0 1 0 13.595a5.56 5.56 0 0 1 3.492-5.35 23.195 23.195 0 0 1 6.168-1.15v-.409a4.013 4.013 0 0 0-.409-2.378 2.2 2.2 0 0 0-1.82-.855 2.473 2.473 0 0 0-2.638 1.969c-.075.297-.26.595-.557.595L1.078 5.68a.572.572 0 0 1-.483-.668C1.338 1.149 4.793-.003 7.913-.003a7.357 7.357 0 0 1 4.947 1.635c1.597 1.487 1.448 3.492 1.448 5.647v5.09a4.602 4.602 0 0 0 1.227 3.044c.223.297.26.668 0 .855-.707.557-1.895 1.597-2.564 2.156z"/></g></svg>