<svg xmlns="http://www.w3.org/2000/svg" width="108" height="32" fill="none" viewBox="0 0 108 32"><g fill="#fff"><path d="M.111 21.541c0-1.557-.027-2.86-.111-4.025h2.945l.14 2h.082a4.678 4.678 0 0 1 4.165-2.307 3.9 3.9 0 0 1 3.749 2.5h.057a5.108 5.108 0 0 1 1.664-1.693 4.515 4.515 0 0 1 2.722-.807c2.25 0 4.525 1.527 4.525 5.861v7.967h-3.333v-7.47c0-2.248-.778-3.583-2.416-3.583a2.606 2.606 0 0 0-2.389 1.804c-.1.37-.156.752-.167 1.136v8.11H8.411v-7.829c0-1.884-.746-3.217-2.33-3.217a2.676 2.676 0 0 0-2.444 1.943c-.135.354-.2.731-.194 1.11v8H.111zm32.92 6.247a21.937 21.937 0 0 0 .193 3.248h-3.083l-.221-1.5h-.084a5.02 5.02 0 0 1-4 1.8 4.011 4.011 0 0 1-4.249-4.025c0-3.418 3.024-5.137 8.025-5.11v-.213c0-.89-.362-2.361-2.751-2.361a7.178 7.178 0 0 0-3.637 1l-.666-2.222a9.727 9.727 0 0 1 4.886-1.194c4.333 0 5.584 2.752 5.584 5.692v4.885zm-3.333-3.359c-2.417-.057-4.72.471-4.72 2.526a1.801 1.801 0 0 0 1.945 1.945 2.77 2.77 0 0 0 2.666-1.862c.075-.243.112-.495.111-.749v-1.858zm5.692-2.891c0-1.557-.028-2.86-.109-4.025h3l.166 2.03h.084a4.875 4.875 0 0 1 4.3-2.337c2.361 0 4.8 1.527 4.8 5.806v8.022h-3.413v-7.631c0-1.943-.723-3.42-2.583-3.42a2.867 2.867 0 0 0-2.666 2 3.464 3.464 0 0 0-.138 1.105v7.943h-3.443v-9.49zm27.051-9.455v15.151c0 1.388.057 2.891.111 3.8H59.5l-.14-2.136h-.057a4.866 4.866 0 0 1-4.414 2.442c-3.222 0-5.775-2.748-5.775-6.911-.03-4.527 2.8-7.223 6.053-7.223a4.3 4.3 0 0 1 3.804 1.782h.058v-6.9h3.413zm-3.413 11.069c0-.298-.028-.596-.084-.889a2.991 2.991 0 0 0-2.943-2.415c-2.193 0-3.417 1.945-3.417 4.471 0 2.469 1.223 4.275 3.39 4.275a3.013 3.013 0 0 0 2.937-2.417c.083-.327.121-.663.114-1v-2.025zm5.829 7.886V17.515h3.446v13.523zm5.859-9.162c0-1.832-.026-3.139-.109-4.359h2.971l.109 2.58h.113a3.72 3.72 0 0 1 3.7-2.58 3.78 3.78 0 0 1 .8 0v3a4.71 4.71 0 0 0-1-.111 3.01 3.01 0 0 0-3.057 2.582 6.14 6.14 0 0 0-.11 1.058v7h-3.417zm9.166 9.162V17.515h3.441v13.523z"/><path d="M104.757 3.214c-1.7-1.945-3.517-1.064-4.958-.349-.606.3-4.98 2.778-4.98 2.778a4.256 4.256 0 0 1-4.993-1 2.148 2.148 0 0 1-.19-.273l-.17-.3a13.321 13.321 0 0 0-.959-1.435 8.103 8.103 0 0 0-.69-.788c-1.64-1.655-4.26-2.814-8.638-.71-2.073 1.2-8.827 5.06-8.827 5.06a4.206 4.206 0 0 1-5.11-1.16.686.686 0 0 1-.074-.114l-.083-.14-.428-.7a11.73 11.73 0 0 0-.621-.892 8.95 8.95 0 0 0-.691-.786C61.717.76 59.11-.395 54.77 1.668l-8.73 4.99-4.47 2.562 2.312 2.839a4.7 4.7 0 0 0 5.63 1.166s7.807-4.52 7.838-4.535c6.675-3.663 9.968-.163 11.425 2.17.05.073.09.152.137.223.019.028.03.054.046.082l.164.27a3.653 3.653 0 0 0 3.166 1.745 3.899 3.899 0 0 0 1.962-.659l7.554-4.382.016-.007c6.759-3.708 10.108.021 11.539 2.354.11.199.233.39.367.574a3.468 3.468 0 0 0 2.926 1.559 4.438 4.438 0 0 0 1.876-.6l9.056-5.227a37.469 37.469 0 0 0-2.827-3.574z"/></g></svg>