<svg xmlns="http://www.w3.org/2000/svg" width="120" height="24" fill="none" viewBox="0 0 120 24"><clipPath id="a"><path d="M.001 0h119.627v23.375H.001z"/></clipPath><g fill="#fff" fill-rule="evenodd" clip-path="url(#a)" clip-rule="evenodd"><path d="M3.646 2.2a8.975 8.975 0 0 1 12.708.942 9.4 9.4 0 0 1 .47 12.707l-7.056 7.059c-1.416-.941-3.765-2.824-2.824-4.707 1.883-2.353 4.233-4.232 6.119-6.589 1.416-1.882.47-5.648-2.353-6.118a3.92 3.92 0 0 0-5.177 4.232c0 2.353 1.883 3.765 3.294 5.177-1.416 1.416-3.294 2.353-3.294 4.233-1.416-1.883-3.764-3.294-4.706-5.648A9.428 9.428 0 0 1 3.646 2.2zm30.12 0c.47-1.416 1.883-.941 2.823-.941V18.67h-2.823v-1.416a6.374 6.374 0 0 1-8 0 6.695 6.695 0 0 1-.471-9.413 6.481 6.481 0 0 1 8.47-.94zm-4.233 6.118c-2.353.47-4.233 3.765-2.353 6.119a3.545 3.545 0 0 0 6.119-.47c1.409-2.355-.946-5.649-3.77-5.649zm9.408-2.353h2.824v.94c.94-1.415 2.824-1.415 4.706-.94-.47.94-.94 1.416-.94 2.353-1.883-.47-3.765.47-3.765 1.883v7.06c-.471 1.415-1.883 1.415-2.825 1.415zm11.765.001c4.707-1.883 9.413 2.824 8.471 7.53-.942 4.706-7.53 7.06-10.83 3.764-3.764-3.294-2.353-10.353 2.354-11.294zm1.416 2.353a4.65 4.65 0 0 0-3.294 3.294 3.794 3.794 0 0 0 7.529.939c0-2.351-2.352-4.704-4.234-4.233zm8.94-2.354h2.824v.942a6.481 6.481 0 0 1 8.47.94 6.138 6.138 0 0 1-.466 8.943c-1.882 2.353-5.648 2.353-8 .941v4.233c-.47 1.415-1.883 1.415-2.824 1.415V5.965zm6.119 2.353c-2.824.47-4.233 3.765-2.824 5.649 1.416 2.353 5.177 2.353 6.119 0 1.88-2.355-.472-5.644-3.295-5.644zm11.765-1.882a6.393 6.393 0 0 1 7.53.94c-.47.47-.941 1.416-1.883 1.883a3.642 3.642 0 0 0-5.648 1.416 3.862 3.862 0 0 0 3.294 5.177c.94 0 1.882-.47 2.823-.47a3.675 3.675 0 0 1 1.883 1.882c-3.294 2.824-8.942 1.883-10.354-2.353-1.881-2.824-.47-6.595 2.355-8.475z"/><path d="M86.946 14.437c-1.41-4.236 1.882-8.942 6.117-8.942a7.513 7.513 0 0 1 7.06 6.118v7.058c-1.416 0-2.353 0-3.294-.941-3.294 2.353-8.47.47-9.883-3.294zm6.119-6.119a4.138 4.138 0 0 0-2.824 6.119c1.883 2.353 5.648 1.883 6.59-.47a4.147 4.147 0 0 0-3.766-5.649zm8.941-2.352h2.823v.941c1.416-1.883 4.707-1.415 6.59.47 2.353-2.823 7.059-1.882 8 1.416.47 2.824 0 6.119 0 8.943 0 .94-1.416.94-2.824.94 0-2.823.471-5.648 0-8.47a2.154 2.154 0 0 0-3.492-1.262 2.154 2.154 0 0 0-.74 1.262v8.47h-2.824a57 57 0 0 0-.47-8.942c-.471-1.883-3.765-1.416-3.765.47a51.165 51.165 0 0 0-.47 8.471h-2.828z"/></g></svg>