<svg xmlns="http://www.w3.org/2000/svg" width="36" height="36" fill="none" viewBox="0 0 36 36"><clipPath id="a"><path d="M0 0h36v36H0z"/></clipPath><g clip-path="url(#a)"><path fill="#fff" d="M7.623 8.015a14.4 14.4 0 0 0 15.87 23.3c.208-1.35-.246-2.646-.431-3.1-.414-1.008-1.779-2.73-4.056-5.12-.608-.638-.569-1.13-.35-2.586l.023-.164c.147-.997.396-1.587 3.753-2.12 1.706-.27 2.154.41 2.775 1.355l.209.31c.59.864 1.028 1.062 1.688 1.36.297.136.666.307 1.161.586 1.174.671 1.174 1.429 1.174 3.089v.189c0 .703-.068 1.323-.176 1.86a14.403 14.403 0 0 0-5.59-22.213c-.995.671-2.361 1.624-2.838 2.277-.243.333-.589 2.038-1.71 2.178-.292.036-.686.01-1.103-.016-1.12-.072-2.65-.171-3.14 1.159-.311.842-.365 3.132.641 4.32.162.189.193.54.083.934-.144.517-.434.832-.526.897-.172-.101-.518-.503-.754-.774-.563-.657-1.269-1.476-2.18-1.728-.33-.092-.694-.168-1.049-.243-.988-.207-2.106-.443-2.367-.998-.19-.406-.189-.966-.189-1.557 0-.75 0-1.598-.367-2.42a2.297 2.297 0 0 0-.551-.775zM18 36C8.059 36 0 27.941 0 18S8.059 0 18 0s18 8.059 18 18-8.059 18-18 18z"/></g></svg>