<svg xmlns="http://www.w3.org/2000/svg" width="50" height="50" fill="none" viewBox="0 0 50 50"><clipPath id="a"><path d="M0 0h50v50H0z"/></clipPath><g fill="#4e6bff" clip-path="url(#a)"><path d="M41.667 45.833H8.333A2.083 2.083 0 0 1 6.25 43.75V16.667h37.5V43.75a2.083 2.083 0 0 1-2.083 2.083zM14.583 22.917v8.333h8.334v-8.333zm0 12.5v4.166h20.834v-4.166zM27.083 25v4.167h8.334V25z"/><path d="M43.75 12.5H6.25V6.25a2.083 2.083 0 0 1 2.083-2.083h33.334A2.083 2.083 0 0 1 43.75 6.25z" opacity=".5"/></g></svg>