<svg xmlns="http://www.w3.org/2000/svg" width="36" height="36" fill="none" viewBox="0 0 36 36"><clipPath id="a"><path d="M0 0h36v36H0z"/></clipPath><g clip-path="url(#a)"><path fill="#fff" d="M18 16.4a8 8 0 0 1 8 8V34h-3.2v-9.6a4.8 4.8 0 0 0-4.518-4.792L18 19.6a4.8 4.8 0 0 0-4.792 4.518l-.008.282V34H10v-9.6a8 8 0 0 1 8-8zM7.6 21.2c.446 0 .88.053 1.296.15a9.515 9.515 0 0 0-.482 2.52l-.014.53v.138a2.388 2.388 0 0 0-.57-.128l-.23-.01a2.4 2.4 0 0 0-2.389 2.17l-.011.23V34H2v-7.2a5.6 5.6 0 0 1 5.6-5.6zm20.8 0a5.6 5.6 0 0 1 5.6 5.6V34h-3.2v-7.2a2.4 2.4 0 0 0-2.17-2.389l-.23-.011c-.28 0-.549.048-.8.136V24.4a9.55 9.55 0 0 0-.494-3.046A5.458 5.458 0 0 1 28.4 21.2zM7.6 11.6a4 4 0 1 1 0 8 4 4 0 0 1 0-8zm20.8 0a4 4 0 1 1 0 8 4 4 0 0 1 0-8zM7.6 14.8a.8.8 0 1 0 0 1.6.8.8 0 0 0 0-1.6zm20.8 0a.8.8 0 1 0 0 1.6.8.8 0 0 0 0-1.6zM18 2a6.4 6.4 0 1 1 0 12.8A6.4 6.4 0 0 1 18 2zm0 3.2a3.2 3.2 0 1 0 0 6.4 3.2 3.2 0 0 0 0-6.4z"/></g></svg>