<svg xmlns="http://www.w3.org/2000/svg" width="36" height="66" fill="none" viewBox="0 0 36 66"><path fill="#f36a8d" fill-rule="evenodd" d="M1.851 9.028c-.255 2.098.596 4.11 2.378 6.19 2.932 3.42 4.39 9.356.013 14.707-1.875 2.292-2.172 4.29-1.897 5.94.285 1.71 1.196 3.147 1.95 4.277 1.192 1.789 2.446 3.76 2.74 6.03.304 2.342-.424 4.843-2.798 7.693-1.989 2.386-2.371 4.428-2.13 5.996.247 1.605 1.17 2.855 2.02 3.574a.903.903 0 0 1-1.167 1.38C1.853 63.877.649 62.26.322 60.134c-.333-2.16.263-4.71 2.527-7.426 2.141-2.57 2.618-4.584 2.395-6.306-.233-1.794-1.237-3.436-2.453-5.26l.752-.5-.752.5C2.04 40.016.918 38.293.564 36.163c-.365-2.189.091-4.707 2.28-7.382 3.71-4.535 2.5-9.487.013-12.388C.898 14.108-.283 11.605.058 8.81.396 6.043 2.198 3.22 5.661.22a.903.903 0 1 1 1.183 1.366C3.533 4.456 2.11 6.903 1.85 9.028zm9.477 0c-.256 2.098.596 4.11 2.377 6.19 2.932 3.42 4.391 9.356.013 14.707-1.875 2.292-2.171 4.29-1.896 5.94.285 1.71 1.196 3.147 1.949 4.277 1.193 1.789 2.447 3.76 2.74 6.03.305 2.342-.423 4.843-2.798 7.693-1.988 2.386-2.37 4.428-2.13 5.996.248 1.605 1.17 2.855 2.02 3.574a.903.903 0 0 1-1.167 1.38c-1.106-.937-2.31-2.554-2.637-4.68-.333-2.16.263-4.71 2.527-7.426 2.14-2.57 2.618-4.584 2.394-6.306-.232-1.794-1.237-3.436-2.452-5.26l.751-.5-.75.5c-.753-1.128-1.874-2.851-2.229-4.98-.365-2.189.092-4.707 2.28-7.382 3.711-4.535 2.5-9.487.014-12.388-1.959-2.285-3.14-4.788-2.8-7.583.338-2.767 2.141-5.589 5.603-8.59a.903.903 0 1 1 1.183 1.366c-3.31 2.87-4.733 5.317-4.992 7.442zm9.477 0c-.256 2.098.595 4.11 2.377 6.19 2.932 3.42 4.39 9.356.013 14.707-1.875 2.292-2.172 4.29-1.897 5.94.285 1.71 1.196 3.147 1.95 4.277 1.193 1.789 2.446 3.76 2.74 6.03.304 2.342-.423 4.843-2.798 7.693-1.988 2.386-2.37 4.428-2.13 5.996.247 1.605 1.17 2.855 2.02 3.574a.903.903 0 0 1-1.167 1.38c-1.107-.937-2.311-2.554-2.638-4.68-.332-2.16.264-4.71 2.527-7.426 2.141-2.57 2.618-4.584 2.395-6.306-.233-1.794-1.237-3.436-2.452-5.26l.751-.5-.751.5c-.752-1.128-1.873-2.851-2.228-4.98-.365-2.189.091-4.707 2.28-7.382 3.71-4.535 2.5-9.487.013-12.388-1.958-2.285-3.14-4.788-2.799-7.583.338-2.767 2.14-5.589 5.603-8.59a.903.903 0 0 1 1.183 1.366c-3.311 2.87-4.733 5.317-4.992 7.442zm9.476 0c-.256 2.098.596 4.11 2.377 6.19 2.933 3.42 4.391 9.356.014 14.707-1.876 2.292-2.172 4.29-1.897 5.94.285 1.71 1.196 3.147 1.95 4.277 1.192 1.789 2.446 3.76 2.74 6.03.304 2.342-.424 4.843-2.799 7.693-1.988 2.386-2.37 4.428-2.129 5.996.247 1.605 1.169 2.855 2.02 3.574a.903.903 0 0 1-1.168 1.38c-1.106-.937-2.31-2.554-2.637-4.68-.333-2.16.263-4.71 2.527-7.426 2.14-2.57 2.618-4.584 2.395-6.306-.233-1.794-1.237-3.436-2.453-5.26l.752-.5-.752.5c-.752-1.128-1.873-2.851-2.228-4.98-.364-2.189.092-4.707 2.28-7.382 3.711-4.535 2.5-9.487.014-12.388-1.959-2.285-3.14-4.788-2.799-7.583.337-2.767 2.14-5.589 5.603-8.59a.903.903 0 1 1 1.183 1.366c-3.312 2.87-4.734 5.317-4.993 7.442z" clip-rule="evenodd"/></svg>