<svg xmlns="http://www.w3.org/2000/svg" width="85" height="46" fill="none" viewBox="0 0 85 46"><path fill="#f36a8d" fill-rule="evenodd" d="M72.382 2.393c-2.712-.33-5.313.77-8 3.073-4.422 3.79-12.094 5.675-19.01.017-2.962-2.424-5.544-2.807-7.678-2.452-2.209.369-4.067 1.546-5.527 2.52-2.313 1.542-4.86 3.162-7.794 3.542-3.028.393-6.261-.547-9.944-3.617-3.084-2.57-5.723-3.064-7.75-2.752-2.074.319-3.69 1.51-4.62 2.61a1.167 1.167 0 1 1-1.783-1.51C1.486 2.395 3.577.84 6.324.416c2.793-.43 6.088.34 9.6 3.267 3.32 2.767 5.924 3.383 8.15 3.095 2.319-.3 4.441-1.599 6.798-3.17l.647.971-.647-.97c1.458-.973 3.686-2.422 6.438-2.88 2.828-.472 6.083.118 9.54 2.947 5.863 4.796 12.263 3.231 16.013.017 2.953-2.532 6.189-4.058 9.801-3.618 3.576.436 7.224 2.767 11.102 7.242a1.167 1.167 0 0 1-1.764 1.529c-3.71-4.28-6.873-6.118-9.62-6.453zm0 12.249c-2.712-.33-5.313.77-8 3.073-4.422 3.79-12.094 5.675-19.01.017-2.962-2.424-5.544-2.807-7.678-2.452-2.209.368-4.067 1.546-5.527 2.52-2.313 1.542-4.86 3.162-7.794 3.542-3.028.393-6.261-.548-9.944-3.617-3.084-2.57-5.723-3.064-7.75-2.752-2.074.319-3.69 1.51-4.62 2.61a1.168 1.168 0 0 1-1.783-1.509c1.21-1.43 3.301-2.986 6.048-3.409 2.793-.43 6.088.34 9.6 3.266 3.32 2.768 5.924 3.384 8.15 3.096 2.319-.301 4.441-1.6 6.798-3.17l.647.971-.647-.971c1.458-.972 3.686-2.421 6.438-2.88 2.828-.471 6.083.118 9.54 2.948 5.863 4.796 12.263 3.231 16.013.017 2.953-2.532 6.189-4.058 9.801-3.618 3.576.436 7.224 2.767 11.102 7.242a1.167 1.167 0 0 1-1.764 1.529c-3.71-4.28-6.873-6.118-9.62-6.453zm0 12.248c-2.712-.33-5.313.77-8 3.073-4.422 3.79-12.094 5.676-19.01.017-2.962-2.423-5.544-2.807-7.678-2.451-2.209.368-4.067 1.546-5.527 2.52-2.313 1.541-4.86 3.162-7.794 3.542-3.028.392-6.261-.548-9.944-3.617-3.084-2.57-5.723-3.064-7.75-2.753-2.074.32-3.69 1.511-4.62 2.61a1.167 1.167 0 1 1-1.783-1.508c1.21-1.43 3.301-2.987 6.048-3.41 2.793-.429 6.088.341 9.6 3.267 3.32 2.768 5.924 3.384 8.15 3.096 2.319-.301 4.441-1.6 6.798-3.17l.647.971-.647-.971c1.458-.972 3.686-2.421 6.438-2.88 2.828-.471 6.083.118 9.54 2.948 5.863 4.796 12.263 3.23 16.013.017 2.953-2.532 6.189-4.058 9.801-3.618 3.576.436 7.224 2.766 11.102 7.242a1.167 1.167 0 0 1-1.764 1.529c-3.71-4.28-6.873-6.118-9.62-6.453zm0 12.25c-2.712-.331-5.313.77-8 3.072-4.422 3.79-12.094 5.675-19.01.017-2.962-2.424-5.544-2.807-7.678-2.451-2.209.368-4.067 1.546-5.527 2.52-2.313 1.541-4.86 3.161-7.794 3.542-3.028.392-6.261-.548-9.944-3.617-3.084-2.57-5.723-3.065-7.75-2.753-2.074.32-3.69 1.51-4.62 2.61a1.167 1.167 0 1 1-1.783-1.508c1.21-1.43 3.301-2.987 6.048-3.41 2.793-.43 6.088.341 9.6 3.267 3.32 2.767 5.924 3.384 8.15 3.095 2.319-.3 4.441-1.598 6.798-3.17l.647.972-.647-.972c1.458-.972 3.686-2.42 6.438-2.88 2.828-.47 6.083.119 9.54 2.948 5.863 4.796 12.263 3.232 16.013.017 2.953-2.531 6.189-4.058 9.801-3.617 3.576.436 7.224 2.766 11.102 7.241a1.167 1.167 0 0 1-1.764 1.53c-3.71-4.28-6.873-6.119-9.62-6.454z" clip-rule="evenodd"/></svg>